<svg width="24" height="24" viewBox="0 0 24 24" fill="none" xmlns="http://www.w3.org/2000/svg">
<g id="facebook-round-svgrepo-com 1" clip-path="url(#clip0_1_201)">
<path id="Vector" d="M12 0C5.37188 0 0 5.37188 0 12C0 18.6281 5.37188 24 12 24C18.6281 24 24 18.6281 24 12C24 5.37188 18.6281 0 12 0ZM14.6484 9.96563L14.5125 11.7609H12.6703V17.9953H10.3453V11.7609H9.10312V9.96563H10.3453V8.76094C10.3453 8.23125 10.3594 7.41094 10.7437 6.9C11.1516 6.36094 11.7094 5.99531 12.6703 5.99531C14.2359 5.99531 14.8922 6.22031 14.8922 6.22031L14.5828 8.05781C14.5828 8.05781 14.0672 7.90781 13.5844 7.90781C13.1016 7.90781 12.6703 8.08125 12.6703 8.56406V9.96563H14.6484Z" fill="#E66767"/>
</g>
<defs>
<clipPath id="clip0_1_201">
<rect width="24" height="24" fill="white"/>
</clipPath>
</defs>
</svg>
