<svg width="24" height="24" viewBox="0 0 24 24" fill="none" xmlns="http://www.w3.org/2000/svg">
<g id="twitter-2-svgrepo-com 1" clip-path="url(#clip0_1_209)">
<g id="Group">
<path id="Vector" d="M12 0C5.37258 0 0 5.37258 0 12C0 18.6274 5.37258 24 12 24C18.6274 24 24 18.6274 24 12C24 5.37258 18.6274 0 12 0ZM12.2309 10.1902C12.2348 10.1904 12.2386 10.1912 12.2426 10.1914C12.2016 10.0155 12.1804 9.83212 12.1804 9.64378C12.1804 8.31689 13.2562 7.24106 14.5833 7.24106C15.2743 7.24106 15.8987 7.53286 16.3371 7.99988C16.7871 7.91128 17.2129 7.75734 17.6087 7.55348C17.6922 7.51298 17.7759 7.47272 17.8581 7.42814C17.7157 7.86567 17.4482 8.24433 17.1015 8.5312C17.0076 8.60508 16.9111 8.67642 16.805 8.73483C16.8122 8.73398 16.8192 8.73239 16.8264 8.7315C16.8194 8.73586 16.8135 8.74181 16.8063 8.74613C17.2002 8.69902 17.5778 8.60311 17.9365 8.46759C18.0169 8.43984 18.0972 8.41177 18.1769 8.38078C17.8561 8.85698 17.4525 9.27586 16.9874 9.61167C16.992 9.71466 16.9943 9.8182 16.9943 9.9225C16.9943 13.0976 14.5776 16.7588 10.1579 16.7588C8.80102 16.7588 7.53802 16.3612 6.47466 15.6794C6.66263 15.7016 6.85397 15.7129 7.04789 15.7129C7.94489 15.7129 8.78292 15.4659 9.50334 15.0407C9.6848 14.9362 9.86231 14.8233 10.0318 14.6955C10.0272 14.6954 10.023 14.6943 10.0184 14.6942C10.0228 14.6908 10.0276 14.6878 10.032 14.6844C9.12155 14.6676 8.33583 14.1435 7.94255 13.3837C7.88395 13.2671 7.8338 13.1449 7.79423 13.0167C7.93889 13.0439 8.08702 13.0588 8.23955 13.0588C8.3985 13.0588 8.55202 13.0383 8.70225 13.0089C8.75836 13.0011 8.81503 12.9945 8.87034 12.9854C8.86303 12.9839 8.85661 12.9807 8.8493 12.9792C8.85689 12.9772 8.86505 12.9765 8.87255 12.9745C7.77338 12.7537 6.94509 11.7825 6.94509 10.6185C6.94509 10.6093 6.94519 10.6003 6.94528 10.5913L6.94641 10.5887C7.2052 10.7323 7.49452 10.8274 7.80094 10.8671C7.87636 10.8797 7.95192 10.8913 8.02744 10.8979C8.02228 10.8945 8.01783 10.8902 8.01272 10.8868C8.01984 10.887 8.02664 10.8885 8.03367 10.8887C7.38895 10.4579 6.96478 9.7223 6.96478 8.88872C6.96478 8.50706 7.05797 8.1487 7.21636 7.82827C7.24163 7.78008 7.26408 7.73086 7.29309 7.68417C8.35767 8.98833 9.89541 9.88594 11.6431 10.1287C11.8381 10.1571 12.0337 10.1823 12.2316 10.1938C12.2313 10.1926 12.2312 10.1914 12.2309 10.1902Z" fill="#E66767"/>
</g>
</g>
<defs>
<clipPath id="clip0_1_209">
<rect width="24" height="24" fill="white"/>
</clipPath>
</defs>
</svg>
